
<svg xmlns="http://www.w3.org/2000/svg" viewBox="0 0 116.4 36.29">
  <defs>
    <style>
      .cls-1 {
        fill: #fff;
        fill-rule: evenodd;
        stroke-width: 0px;
      }
    </style>
  </defs>
  <g id="Calque_1-2" data-name="Calque 1">
    <path class="cls-1" d="m116.4,29.29l-.36,4.39c-2.18,1.72-4.34,2.6-6.46,2.6-3.13,0-5.12-1.44-5.8-3.51-1.78,2.12-4.02,3.51-7.24,3.51-2.44,0-4.35-1.17-5.64-3.06-1.81,1.03-5.81,3.13-10.67,3.06-3.13-.04-5.12-1.44-5.8-3.51-1.78,2.08-3.94,3.51-7.24,3.51-2.4,0-4.29-1.13-5.57-2.97-5.08,2.35-8.19,2.97-10.26,2.97-3.22,0-5.12-1.31-5.84-3.22-2.33,2.16-4.78,3.22-7.58,3.22-3.19,0-5.47-1.67-6.3-4.22-4.8,2.54-9.18,4.03-14.86,4.22C6.74,36.62,0,30.69,0,20.33,0,8.22,8.33-.13,20.7,0c6.02.07,10.19,2.05,12.04,3.31l-3.35,7.63c-1.5-.72-4.32-1.23-6.7-1.23-6.11,0-9.09,3.96-9.26,9.09-.18,5.29,3.1,8.8,7.94,9.26,4.79.46,8.21-.64,10.3-1.56l1.87-13.2h10.25l-1.82,12.83c-.17,1.14.55,2.07,1.61,2.07s1.99-.93,2.16-2.07l1.82-12.83h10.25l-1.99,14.27c-.24,1.74.37,2.84,4.1,1.32-.13-.8-.21-1.64-.21-2.51,0-7.75,4.95-13.64,11.14-13.64,2.46,0,4.11,1.06,5.34,2.75l1.52-11.05h10.25l-3.26,23.29c-.21,1.61.52,2.82,4.5.74-.09-.67-.14-1.37-.14-2.09,0-7.58,4.95-13.64,11.14-13.64,2.46,0,4.11,1.06,5.34,2.75l.3-2.2h10.25l-2.03,14.44c-.21,1.65.81,1.95,2.37,1.57Zm-43.11-8.6c-1.99,0-3.56,2.03-3.56,4.36,0,1.78.93,3.17,2.5,3.17,1.95,0,3.56-2.03,3.56-4.36,0-1.78-.97-3.18-2.5-3.18Zm29.35,0c-1.99,0-3.56,2.03-3.56,4.36,0,1.78.93,3.17,2.5,3.17,1.95,0,3.56-2.03,3.56-4.36,0-1.78-.97-3.18-2.5-3.18Z"/>
  </g>
</svg>